<?xml version="1.0" standalone="no"?>
<!DOCTYPE svg PUBLIC "-//W3C//DTD SVG 1.1//EN" "http://www.w3.org/Graphics/SVG/1.1/DTD/svg11.dtd" >
<svg xmlns="http://www.w3.org/2000/svg">
<metadata>Generated by IcoMoon</metadata>
<defs>
<font id="pictos-web" horiz-adv-x="512">
<font-face units-per-em="512" ascent="480" descent="-32" />
<missing-glyph horiz-adv-x="512" />
<glyph unicode="&#x20;" d="" horiz-adv-x="256" />
<glyph unicode="&#x21;" d="M442.88 148.736q18.944-31.744 5.632-54.528t-50.176-22.784h-317.952q-36.864 0-49.92 22.784t5.888 54.528l158.72 273.408q18.432 31.744 44.8 31.744t44.8-31.744zM241.152 119.552q11.776 0 19.712 8.192t7.936 19.456-7.936 19.2-19.712 7.936q-11.264 0-19.2-7.936t-7.936-19.2 7.936-19.456 19.2-8.192zM260.608 191.744l13.312 157.696h-65.024l13.312-157.696h38.4z" horiz-adv-x="479" />
<glyph unicode="&#x22;" d="M26.624 243.968q0.512 33.28 3.84 58.88t13.568 51.968 27.392 44.288 46.336 29.952 69.12 14.592v-80.384q-33.792 0-48.64-23.808t-14.848-75.52l-2.048-0.512h43.008q9.216 0 15.872-6.656t6.656-16.384v-132.096q0-9.216-6.656-15.872t-15.872-6.656h-115.2q-9.216 0-15.872 6.656t-6.656 15.872v135.68zM252.416 243.968q0 33.28 3.584 58.88t13.824 51.968 27.392 44.288 46.336 29.952 69.12 14.592v-80.384q-34.304 0-49.152-23.808t-14.848-75.52l-2.048-0.512h43.008q9.216 0 15.872-6.656t6.656-16.384v-132.096q0-9.216-6.656-15.872t-15.872-6.656h-114.688q-9.728 0-16.384 6.656t-6.656 15.872v132.096q0 2.56 0.512 3.584z" horiz-adv-x="443" />
<glyph unicode="&#x23;" d="M360.96 342.784q4.608-7.168-4.096-7.168h-24.576v-290.304q0-3.584-2.56-6.144t-6.144-2.56h-262.656q-3.584 0-6.144 2.56t-2.56 6.144v290.304h-26.624q-3.584 0-4.864 2.048t0.768 5.12l15.872 23.552q4.608 7.168 13.824 7.168h38.4v33.792q0 10.24 6.144 15.36l24.576 25.088q6.144 6.144 15.36 6.144h110.592q9.216 0 15.36-6.144l26.624-26.624q6.656-6.656 6.656-15.36v-32.256h36.352q9.216 0 13.824-7.168zM126.976 375.552v-2.048h130.048v16.384q0 10.24-6.144 15.36l-4.608 5.12q-6.144 6.144-15.36 6.144h-79.36q-9.216 0-15.36-6.144l-3.072-3.072q-6.144-6.144-6.144-15.36v-16.384zM294.912 326.4q0 8.192-8.192 9.216h-188.416q-3.584 0-6.144-2.816t-2.56-6.4v-243.712q0-3.584 2.56-6.144t6.144-2.56h187.904q3.584 0 6.144 2.56t2.56 6.144v243.712zM134.656 310.016q3.584 0 6.4-2.56t2.816-6.144v-194.048q0-3.584-2.816-6.144t-6.4-2.56h-10.752q-3.584 0-6.4 2.56t-2.816 6.144v194.048q0 3.584 2.816 6.144t6.4 2.56h10.752zM186.368 98.56q-3.584 0-6.4 2.56t-2.816 6.144v194.048q0 3.584 2.816 6.144t6.4 2.56h10.752q3.584 0 6.144-2.56t2.56-6.144v-194.048q0-3.584-2.56-6.144t-6.144-2.56h-10.752zM248.32 98.56q-3.584 0-6.144 2.56t-2.56 6.144v194.048q0 3.584 2.56 6.144t6.144 2.56h11.264q3.584 0 6.144-2.56t2.56-6.144v-194.048q0-3.584-2.56-6.144t-6.144-2.56h-11.264z" horiz-adv-x="383" />
<glyph unicode="&#x24;" d="M96 480v-512l160 160 160-160v512z" />
<glyph unicode="&#x25;" d="M464-32h-336v512h160v-288l48 64h32l48-64v288h48c8.848 0 16-7.168 16-16v-480c0-8.848-7.152-16-16-16zM32-16v480c0 8.832 7.152 16 16 16h48v-512h-48c-8.848 0-16 7.152-16 16z" />
<glyph unicode="&#x26;" d="M238.080 303.36h128v-101.376h-128v-128h-101.376v128h-128v101.376h128v128h101.376v-128z" horiz-adv-x="375" />
<glyph unicode="&#x27;" d="M135.68 167.168q39.936 39.936 96.512 39.936t96.512-39.936q0.512 0 0.512-0.512l-28.16-28.16q-0.512 0-0.512 0.512-28.16 28.16-68.096 28.16t-68.096-28.16zM71.68 231.168q43.52 43.52 102.144 59.136t116.992 0 101.888-59.136l0.512-0.512-28.672-28.672q0 0.512-0.512 0.512-54.272 54.272-131.84 54.528t-131.84-54.016zM457.216 296.704q0-1.024 1.024-1.024l-28.672-28.672-1.024 1.024q-53.248 53.248-124.928 72.192t-143.104 0-124.672-72.192q-0.512 0-0.512-0.512l-28.672 28.672 0.512 0.512q61.44 60.928 143.36 82.688t163.584 0 143.104-82.688zM200.704 102.656q13.312 12.8 32.256 12.8t32.256-12.8l-32.256-32.256z" horiz-adv-x="465" />
<glyph unicode="&#x28;" d="M281.6 279.808h39.424v-223.744h-297.984v223.744h38.4v65.536q0 44.544 31.744 76.288t76.288 31.744h4.096q45.056 0 76.544-31.744t31.488-76.288v-65.536zM205.824 97.024l-16.384 72.192q16.384 10.24 16.384 29.184 0 14.336-9.728 24.064t-24.064 9.728q-13.824 0-23.808-9.728t-9.984-24.064q0-19.456 16.896-28.672l-16.896-72.704h67.584zM227.84 279.808v65.536q0 22.016-15.872 37.888t-38.4 15.872h-4.096q-22.016 0-37.888-15.872t-15.872-37.888v-65.536h112.128z" horiz-adv-x="344" />
<glyph unicode="&#x29;" d="M330.24 453.376q45.056 0 76.8-31.488t31.744-76.544v-65.536h-54.272v14.848l18.432 17.408v6.656h-18.432v26.624q0 22.528-15.872 38.144t-38.4 15.616h-3.584q-22.528 0-38.4-15.616t-15.872-38.144v-65.536h39.424v-224.256h-299.008v224.256h205.312v65.536q0 45.056 31.744 76.544t76.8 31.488h3.584zM195.584 96l-16.896 72.704q16.896 10.24 16.896 29.184 0 14.336-9.984 24.32t-23.808 9.984q-14.336 0-24.32-9.984t-9.984-24.32q0-18.944 16.896-29.184l-16.896-72.704h68.096z" horiz-adv-x="455" />
<glyph unicode="&#x2a;" d="M377.344 346.88l-99.84-99.84 99.84-100.352-78.848-78.336-99.84 99.84-99.84-99.84-78.848 78.336 99.84 100.352-99.84 99.84 78.848 78.848 99.84-99.84 99.84 99.84z" horiz-adv-x="398" />
<glyph unicode="&#x2b;" d="M235.52 455.424q89.088 0 152.064-62.976t62.976-152.064-62.976-152.064-152.064-62.976-152.064 62.976-62.976 152.064 62.976 152.064 152.064 62.976zM363.008 230.144v20.992q0 7.68-5.376 13.056t-13.056 5.376h-61.952q-7.68 0-13.056 5.632t-5.376 13.312v61.952q0 7.68-5.632 13.056t-13.312 5.376h-20.992q-7.68 0-13.056-5.376t-5.376-13.056v-61.952q0-7.68-5.632-13.312t-13.312-5.632h-61.44q-8.192 0-13.568-5.376t-5.376-13.056v-20.992q0-7.68 5.376-13.312t13.568-5.632h61.44q7.68 0 13.312-5.376t5.632-13.056v-61.952q0-7.68 5.376-13.056t13.056-5.376h20.992q7.68 0 13.312 5.376t5.632 13.056v61.952q0 7.68 5.376 13.056t13.056 5.376h61.952q7.68 0 13.056 5.632t5.376 13.312z" />
<glyph unicode="&#x2c;" d="M234.496 454.912q88.576 0 151.040-62.72t62.464-151.296q0-53.248-23.552-97.792-30.208-58.88-88.064-90.112-48.128-26.112-101.888-26.112-51.712 0-99.328 24.576-58.368 30.72-89.6 88.576-25.088 47.616-25.088 100.864 0 88.576 62.72 151.296t151.296 62.72zM389.12 199.936q5.632 20.992 5.632 40.96 0 66.56-47.104 113.664t-113.152 47.104q-66.56 0-113.664-47.104t-47.104-113.664q0-19.968 6.144-43.52 1.536-4.608 4.608-12.8 10.752 3.072 23.040 3.072 33.28 0 57.088-23.552t23.808-56.832q0-8.704-2.56-18.944 2.048-1.024 6.144-2.048 21.504-5.632 42.496-5.632 23.040 0 44.544 6.144 1.024 0 2.816 1.024t2.816 1.024q-2.56 11.264-2.56 20.48 0 32.768 23.808 56.576t56.576 23.808q11.776 0 22.528-3.072 2.56 7.68 4.096 13.312zM254.976 266.496q12.8-9.728 12.8-25.6 0-7.168-2.56-12.288-8.192-19.968-29.696-19.968-5.632 0-12.288 2.56-19.968 8.192-19.968 29.696 0 0.512 0.256 2.048t0.256 2.56l-28.672 125.44 10.752 4.608zM244.736 385.28v-48.64h-19.968v48.64h19.968zM323.584 346.88l13.824-13.824-34.816-34.816-13.824 14.336zM322.048 249.6v19.456h49.152v-19.456h-49.152zM98.304 249.6v19.456h48.64v-19.456h-48.64zM124.928 333.056l14.336 13.824 34.304-34.304-13.824-14.336z" horiz-adv-x="469" />
<glyph unicode="&#x2d;" d="M236.032 453.376q89.088 0 152.064-63.232t62.976-152.32-62.976-152.32-152.064-63.232q-89.6 0-152.576 63.232t-62.976 152.32 62.976 152.32 152.576 63.232zM355.328 228.096v19.968q0 9.728-7.168 16.896t-16.896 7.168h-192.512q-9.728 0-16.896-7.168t-7.168-16.896v-19.968q0-10.24 7.168-17.152t16.896-6.912h192.512q9.728 0 16.896 6.912t7.168 17.152z" horiz-adv-x="472" />
<glyph unicode="&#x2e;" d="M75.264 296.704q18.944 0 32.768-13.824t13.824-32.768q0-19.456-13.568-33.28t-33.024-13.824-33.28 13.824-13.824 33.28 13.824 33.024 33.28 13.568zM241.664 296.704q19.456 0 33.28-13.568t13.824-33.024-13.824-33.28-33.28-13.824-33.024 13.824-13.568 33.28q0 18.944 13.568 32.768t33.024 13.824zM408.576 296.704q19.456 0 33.28-13.568t13.824-33.024-13.824-33.28-33.28-13.824-33.28 13.824-13.824 33.28q0 18.944 13.824 32.768t33.28 13.824z" horiz-adv-x="484" />
<glyph unicode="&#x2f;" d="M354.816 370.944h92.672v-219.136h-92.672v-27.136l-69.632-69.632h-172.032v96.768h-92.672v219.136h92.672v83.456h241.664v-83.456zM417.792 341.76h-53.76v-27.136h53.76v27.136zM140.8 426.752v-55.808h186.368v55.808h-186.368zM257.024 82.688v69.632h70.144v95.232h27.648v-66.048h34.304v100.864h-309.248v-100.864h33.28v66.048h27.648v-164.864h116.224z" horiz-adv-x="467" />
<glyph unicode="&#x30;" d="M329.216 178.432l19.968-20.48 14.336-13.824q-24.064-30.72-59.648-48.384t-76.032-17.664q-71.68 0-122.112 50.176t-50.944 121.856h-40.96l64.512 64.512 65.024-64.512h-40.448q0-51.2 36.608-87.552t88.32-36.352q30.72 0 57.6 14.080t43.776 38.144zM414.72 250.112h26.624l-65.024-64.512-64.512 64.512h40.96v1.024q0 51.712-36.608 88.32t-88.32 36.608q-31.232 0-58.112-14.592t-44.288-39.168l-34.304 34.304q24.064 31.232 59.648 49.152t77.056 17.92q71.168 0 121.856-50.688t50.688-121.856v-1.024h14.336z" horiz-adv-x="455" />
<glyph unicode="&#x31;" d="M352.256 216.32h14.848v-15.36q0-73.216-51.456-124.672t-124.672-51.456-124.928 51.712-51.712 124.416q0 73.216 51.712 124.928t124.928 51.712q8.192 0 12.8-0.512v76.8l25.088-25.6 91.136-91.136-10.752-10.24-80.384-80.384-25.088-25.6v80.896q-9.216 1.024-12.8 1.024-42.496 0-72.192-29.696t-29.696-72.192q0-41.984 29.952-71.68t71.936-29.696 71.68 29.696 29.696 71.68v15.36h59.904z" horiz-adv-x="381" />
<glyph unicode="&#x32;" d="M235.008 454.912q89.088 0 152.064-62.976t62.976-152.064-62.976-152.064-152.064-62.976q-88.576 0-151.552 62.976t-62.976 152.064 62.976 152.064 151.552 62.976zM372.736 296.704q3.072 3.072 3.072 7.68t-3.072 8.192l-28.16 27.648q-3.072 3.072-7.68 3.072t-8.192-3.072l-124.416-124.928q-7.68-8.192-15.872 0l-45.056 45.056q-8.192 8.192-15.872 0l-28.16-27.648q-3.072-3.584-3.072-8.192t3.072-7.68l71.168-71.68q7.68-7.68 18.944-7.68h13.312q10.24 0 18.944 7.68z" horiz-adv-x="471" />
<glyph unicode="&#x33;" d="M11.264 218.368q-5.12 5.12-5.12 12.288t5.12 12.288l42.496 42.496q5.12 5.12 12.032 5.12t12.032-5.12l69.632-69.12q5.12-5.12 12.032-5.12t12.032 5.12l189.952 190.464q5.12 5.12 12.032 5.12t12.032-5.12l42.496-41.984q5.12-5.12 5.12-12.032t-5.12-12.032l-230.4-230.912q-12.288-12.288-29.184-12.288h-19.968q-16.384 0-28.672 12.288z" horiz-adv-x="445" />
<glyph unicode="&#x34;" d="M30.208 454.4l359.424-179.712-359.424-179.2v358.912z" horiz-adv-x="390" />
<glyph unicode="&#x35;" d="M30.208 96.512v357.376h134.144v-357.376h-134.144zM253.44 453.888h134.144v-357.376h-134.144v357.376z" horiz-adv-x="418" />
<glyph unicode="&#x36;" d="M388.096 97.024h-357.888v357.376h357.888v-357.376z" horiz-adv-x="419" />
<glyph unicode="&#x37;" d="M216.576 309.504v93.184l248.32-124.416-248.32-123.904v92.672l-186.368-92.672v248.32z" horiz-adv-x="472" />
<glyph unicode="&#x38;" d="M256 247.040v-93.184l-248.832 124.416 248.832 123.904v-93.184l185.856 93.184v-248.32z" horiz-adv-x="472" />
<glyph unicode="&#x39;" d="M235.52 454.4q89.088 0 152.064-62.976t62.976-152.064-62.976-152.064-152.064-62.976-152.064 62.976-62.976 152.064 62.976 152.064 152.064 62.976zM152.576 128.768l220.672 110.592-220.672 110.592v-221.184z" />
<glyph unicode="&#x3a;" d="M343.552 147.2l53.76-52.224q0-8.192-6.144-14.592t-14.848-6.4h-123.904q0.512-2.048 0.512-6.144 0-19.968-14.080-34.048t-34.048-14.080-34.048 14.080-14.080 34.048q0 1.024 0.256 3.072t0.256 3.072h-123.392q-8.192 0-14.592 6.4t-6.4 14.592l53.76 52.224q-0.512 4.096-0.512 12.8v106.496q0 45.056 25.856 80.896t66.816 50.176q-2.048 5.632-2.048 13.312 0 19.968 14.080 34.048t34.048 14.080 34.048-14.080 14.080-34.048q0-7.168-1.536-13.312 40.96-14.336 66.816-50.432t25.856-80.64v-106.496q0-8.704-0.512-12.8zM178.176 410.88q0-2.56 1.024-7.68 14.336 2.56 25.6 2.56 11.776 0 25.6-2.56 1.536 4.096 1.536 7.68 0 11.264-7.936 18.944t-19.2 7.68-18.944-7.68-7.68-18.944z" horiz-adv-x="410" />
<glyph unicode="&#x3b;" d="M0 336h352v-64h-352v64zM0 432h352v-64h-352v64zM0 240h352v-64h-352v64zM0 144h352v-64h-352v64zM384 240l64-96 64 96h-128zM512 272l-64 96-64-96h128z" />
<glyph unicode="&#x3c;" d="M58.88 305.92l113.664 114.176v-342.016l-113.664 113.664h-57.344v114.176h57.344z" horiz-adv-x="202" />
<glyph unicode="&#x3d;" d="M458.752 290.048v-90.112l-32.256-12.8v-55.296h-395.776v226.304h395.776v-55.808zM389.12 169.728v150.528h-320.512v-150.528h320.512zM190.976 295.68l113.664-101.376h-211.456v101.376h97.792z" horiz-adv-x="485" />
<glyph unicode="&#x3e;" d="M64.512 304.896l113.664 114.176v-342.016l-113.664 113.664h-57.344v114.176h57.344zM222.208 320.256q38.4-25.6 38.4-71.68t-38.4-71.168l-17.408 34.304q17.92 14.336 17.92 36.864t-17.92 36.864v1.024zM348.16 248.576q0-47.104-23.552-86.272t-62.976-61.696l-17.408 33.792q30.208 17.408 48.128 47.872t17.92 66.304-17.92 66.304-48.128 47.872v1.024l16.896 33.28q39.424-22.528 63.232-62.208t23.808-86.272zM300.544 473.856q60.416-33.792 96.512-93.696t36.096-131.584-36.096-131.584-96.512-93.184l-16.896 33.792q50.688 28.672 81.152 79.616t30.464 111.36-30.464 111.36-81.664 79.616z" horiz-adv-x="455" />
<glyph unicode="&#x3f;" d="M236.032 455.424q89.6 0 152.576-63.232t62.976-152.32-62.976-152.32-152.576-63.232q-89.088 0-152.32 63.232t-63.232 152.32 63.232 152.32 152.32 63.232zM250.368 110.848q9.728 9.216 9.728 24.064t-9.728 24.064q-10.24 8.704-25.088 8.704-14.336 0-24.576-8.704-10.24-10.24-9.216-24.064-1.024-13.824 9.216-24.064 9.728-8.704 24.576-8.704 16.384 0 25.088 8.704zM308.224 275.712q5.12 12.288 5.12 31.744 0 29.696-20.992 47.616-19.456 17.408-55.296 17.408-25.088 0-43.52-6.144-16.896-5.632-32.256-15.872l-4.608-3.072 23.552-44.544 5.12 4.096q1.024 0.512 9.728 5.632 3.584 2.048 11.776 5.12 5.12 2.048 11.776 3.072 3.584 1.024 10.752 1.024 15.36 0 19.456-5.12 5.632-5.632 5.632-15.872 0-6.656-3.584-12.8-6.144-8.192-10.752-12.288-2.048-2.048-4.352-4.096l-5.12-4.608t-4.864-4.096q-8.704-8.192-15.36-17.408-6.144-10.24-10.24-23.552-2.56-11.264-2.56-20.992 0-2.048 0.256-6.144t0.256-6.144l0.512-5.632h50.688v6.144q0 13.312 4.096 21.504 4.608 8.192 10.752 15.36 7.168 7.168 14.848 12.8t16.384 15.36q7.168 8.704 12.8 21.504z" horiz-adv-x="472" />
<glyph unicode="&#x40;" d="M132.096 455.936q47.104 0 80.64-33.792t33.536-80.384q0-54.784-103.936-279.552l-12.288-25.6-32.256 69.12t-51.712 125.184-32.256 110.848q0 47.104 33.536 80.64t80.64 33.536h4.096zM130.048 299.264q21.504 0 36.864 15.36t15.36 37.376q0 21.504-15.36 36.864t-36.864 15.36q-22.016 0-37.376-15.36t-15.36-36.864q0-22.016 15.36-37.376t37.376-15.36z" horiz-adv-x="260" />
<glyph unicode="&#x41;" d="M161.28 249.088l35.84-35.84q-19.456-16.384-45.312-15.36t-44.288 19.456l-73.728 73.728q-19.456 18.944-19.456 46.592t19.456 46.592l50.688 50.688q19.456 19.456 46.848 19.456t46.848-19.456l73.728-73.728q18.432-18.432 19.2-44.288t-15.616-45.312l-35.84 35.328q5.12 10.24-3.072 19.456l-73.728 73.728q-4.608 4.608-11.52 4.608t-11.52-4.608l-50.688-50.688q-5.12-5.12-5.12-11.776t5.12-11.776l73.728-73.728q8.192-8.192 18.432-3.072zM372.736 45.312q-19.456-18.944-46.592-18.944t-46.592 18.944l-74.24 74.24q-17.92 17.92-18.944 43.776t15.36 45.312l35.328-35.84q-4.608-10.24 3.584-18.432l73.728-73.728q4.608-5.12 11.52-5.12t11.52 5.12l50.688 50.688q5.12 4.608 5.12 11.52t-5.12 11.52l-73.728 74.24q-8.192 8.192-18.944 2.56l-35.328 35.84q19.456 16.384 45.312 15.616t44.288-19.2l73.728-73.728q18.944-19.456 18.944-46.848t-18.944-46.848zM134.656 334.080q7.168 7.168 17.408 7.168t17.408-7.168l151.040-151.040q7.168-7.168 7.168-17.408t-7.168-17.408-17.408-7.168-17.408 7.168l-151.040 150.528q-7.168 7.168-7.168 17.664t7.168 17.664z" horiz-adv-x="457" />
<glyph unicode="&#x42;" d="M136.496 264c0-66.288 53.728-120 120-120 66.288 0 120 53.712 120 120s-53.712 120-120 120c-66.272 0-120-53.712-120-120zM256.496 468l-33.744-67.504h67.504l-33.76 67.504zM400.688 408.688l-71.6-23.856 47.712-47.728 23.888 71.584zM183.904 384.832l-71.584 23.856 23.856-71.6 47.728 47.744zM119.504 298.256l-67.504-33.76 67.504-33.744v67.504zM392.496 229.744l67.504 33.744-67.504 33.744v-67.488zM256.496 60l33.744 67.504h-67.504l33.76-67.504zM329.088 143.168l71.6-23.856-23.872 71.6-47.728-47.744zM112.32 119.312l71.6 23.856-47.728 47.728-23.872-71.584z" />
<glyph unicode="&#x43;" d="M394.752 258.304q23.552-9.216 37.888-30.464t14.336-47.36q0-34.816-24.832-59.648t-59.648-24.832q-1.024 0-2.56 0.256t-2.048 0.256h-254.464q-35.328 0.512-60.16 25.6t-24.832 60.928q0 23.040 11.52 42.752t30.976 30.976q-3.072 8.192-3.072 17.92 0 24.064 17.408 41.472t41.472 17.408q19.456 0 36.352-12.8 15.872 32.768 46.592 52.736t68.096 19.968q52.736 0 90.112-37.12t37.376-90.368q0-5.12-0.512-7.68z" horiz-adv-x="468" />
<glyph unicode="&#x44;" d="M235.008 453.376q88.576 0 151.296-62.976t62.72-151.552-62.72-151.296-151.296-62.72-151.552 62.72-62.976 151.296 62.976 151.552 151.552 62.976zM293.888 225.024q-5.632 6.144-5.632 14.336t5.632 14.336l55.808 55.296q5.632 6.144 5.632 14.592t-5.632 14.080l-15.872 15.872q-6.144 5.632-14.592 5.632t-14.080-5.632l-55.296-55.808q-6.144-5.632-14.592-5.632t-14.080 5.632l-55.808 55.808q-5.632 5.632-14.080 5.632t-14.080-5.632l-15.872-15.872q-5.632-5.632-5.632-14.080t5.632-14.592l55.808-55.296q5.632-6.144 5.632-14.336t-5.632-14.336l-55.808-55.296q-5.632-6.144-5.632-14.592t5.632-14.080l15.872-15.872q5.632-5.632 14.080-5.632t14.080 5.632l55.808 55.808q5.632 5.632 14.080 5.632t14.592-5.632l55.296-55.808q5.632-5.632 14.080-5.632t14.592 5.632l15.872 15.872q5.632 5.632 5.632 14.080t-5.632 14.592z" horiz-adv-x="470" />
<glyph unicode="&#x45;" d="M229.376 367.872q32.256 0 66.304-12.032t59.136-29.184 45.824-34.304 31.488-29.44l10.752-11.776v-4.096l-11.264-12.544t-30.464-27.904-47.104-35.328-58.368-27.904-66.816-12.544-66.304 12.032-59.136 29.184-45.824 34.304-31.488 28.928l-10.752 12.288v4.608l11.264 12.544t30.464 27.904 47.104 35.072 58.368 27.648 66.816 12.544zM228.352 176.896q29.696 0 50.432 20.736t20.736 50.432q0 29.184-20.736 49.92t-50.432 20.736q-29.184 0-49.92-20.736t-20.736-49.92q0-29.696 20.736-50.432t49.92-20.736zM228.352 280.832q13.312 0 23.040-9.728t9.728-23.040-9.728-22.784-23.040-9.472-22.784 9.472-9.472 22.784 9.472 23.040 22.784 9.728z" horiz-adv-x="458" />
<glyph unicode="&#x46;" d="M114.688 454.4h216.064v-418.816h-303.616v330.752l87.552 87.552v0.512zM295.936 70.4v349.184h-145.92v-88.064h-88.064v-261.12h233.984z" horiz-adv-x="361" />
<glyph unicode="&#x47;" d="M235.52 453.376q89.088 0 152.064-62.976t62.976-152.064-62.976-152.064-152.064-62.976-152.064 62.976-62.976 152.064 62.976 152.064 152.064 62.976zM377.856 301.312l-0.512-1.536q-0.512-1.536-0.512-2.816t1.024-1.28q0-1.024 1.536-3.072t1.536-4.096v-5.632q0.512-1.024 2.56-1.536 0.512-2.048 3.072-2.56t3.072 1.536q-1.536 0-1.28 2.304t-0.256 2.304q0 1.024-0.512 1.536-1.024 1.024-1.024 1.536h3.584q0 1.024-1.024 2.56t-1.024 2.048q-0.512 0-1.28-0.512t-1.024-0.512-0.256 1.024-2.048 3.072l-1.024 3.584q1.536 0 3.072 0.512-0.512 0 2.048 1.024-0.512 0.512-1.024 2.048-1.024 2.048-3.584 1.024-1.024 0-2.56-1.28t-2.56-1.28zM376.32 137.472q32.256 46.080 32.256 100.864 0 9.728-0.512 14.336-4.608 0-6.656 1.024-2.048 0-7.424 2.304t-8.448 1.28q0 0.512-0.512 0.512 1.024 1.536-2.56 5.632-2.56 2.048-3.584 0-1.024-1.536 2.56-5.12 0-1.024 1.024-3.072 1.024-0.512 0.512-1.536t-0.512-1.536q2.048 0 2.56 3.584 0-0.512 0.512-0.512-1.024-1.536 0.512-3.072v-2.56q5.12 0 7.168 5.12 0.512 0 0.512-1.024t0.512-1.536q1.536-1.536 1.024-2.56t1.024-1.024q1.024-0.512 1.024 0.512v1.024q2.048-1.024 2.048-3.072t-2.048-3.072q0-0.512-0.512-1.536t-0.512-2.048q0-3.072-2.048-4.096l-2.048-1.024q-2.048-1.536-4.096-2.816t-2.048-1.792q-6.144 0-7.68-3.584-3.584 0-5.632-2.048-3.072 0-4.352 3.072t-2.304 3.072l-1.024 2.56q0.512 0-0.768 3.072l-2.816 6.656t-1.536 4.608l-2.56 5.12q-1.024 0.512-3.584 6.144-4.096 2.048-5.12 6.656 5.12 0 5.12 2.048-0.512 0-1.024 0.512-1.024 1.024 0.512 1.024l1.536 4.608q0 0.512 0.512 2.816t0.512 3.328q-1.024 0-4.096-1.024 0-0.512-0.768-0.256t-1.792 0.256l-1.536 0.512q0 0.512-3.328 0t-4.352 1.024q-1.024 1.024-2.048 7.168-0.512 1.536-4.096 1.536-1.536 0.512-1.792-0.512t0.256-2.56l0.512-2.048q1.024 0-1.024-3.584-0.512-0.512-0.512-1.024-2.048 0.512-3.072 3.072t-2.048 3.072q-0.512 2.048-1.536 2.048 0 5.12-0.512 5.12l-1.536 0.512q-2.048 1.024-2.56 1.536-1.024 0-2.816 1.792t-3.328 2.816-2.048 0l1.536-3.072q1.024 0 2.56-2.304t3.584-1.792v-2.56q1.536 0.512 2.304-0.768t1.28-1.28q0-0.512-1.536 0-2.048 1.024-1.536-0.512 1.024-3.072-2.048-4.608 0 6.144-1.536 6.144-1.024 1.536-3.584 2.56t-3.072 2.048q-0.512 0-1.792 1.792t-2.304 2.304q-1.024-1.024-2.56-1.024-0.512-1.024-2.304-1.28t-3.84 0.256l-1.536 0.512q-3.584-9.216-4.096-10.24-0.512-1.536-1.536-2.56t-1.536-2.56q0-0.512-3.84-0.768t-3.84-0.768q-5.632 2.048-5.632 6.656v2.56t0.512 4.608 0.512 3.072l1.024-1.024h4.096t1.792 0.512 0.768 1.024q2.048 0 1.536-2.048 4.608-1.536 4.608 1.536-1.024 0-1.024 1.024 1.536 2.048 1.024 3.584t-2.048 3.072-1.536 2.048l-2.048 2.048q4.608-3.072 5.632-0.512 0 0.512-0.512 1.536v0.512q1.024-1.024 1.792-1.28t1.28 0.768q1.024 0.512 1.536 1.536v3.072q1.536-2.048 2.304 0t1.28 2.56q0-1.536 1.536 0 1.024 1.024 1.536 1.024 0.512 1.024 2.56 1.28t2.56 1.792q-1.536 0.512-1.536 6.144 1.024 0 2.304 0.768t1.792 0.768 1.024-1.024q0-3.072 0.512-3.072 2.048 1.024 2.048 2.56-1.024 0-2.56 5.12-1.536 0-2.56-1.024-1.536 0-3.84 0.512t-3.328 0.512q-3.584 3.584-3.072 3.584-1.024 2.048 1.024 2.56h1.024q0 1.024 5.888 2.56t6.4 4.096q-3.072 0 4.096 6.656 5.12 4.096 7.168 4.096 0.512 0 4.864 1.024l7.424 1.792t4.096-0.256q11.264 0 11.264-1.024 0.512 0 1.792-0.512t2.048-0.768 1.792 0.256q1.536 1.024 5.632-1.024t4.096-4.096q-1.536 0-6.144-0.512t-7.168-0.512v-1.024q1.024 0 2.816-2.304t1.28-3.328q1.536 0 3.072 1.024t2.048 1.024q0-1.024 0.512-1.536 1.536-1.024 2.048 1.536l-0.512 2.048q0.512 1.024 2.304 1.28t2.304 1.792q-24.064 28.672-58.624 45.056t-73.472 16.384q-68.608 0-118.272-46.592 0.512-0.512 2.56 1.024l1.024 0.512q0-3.072 0.512-4.096l1.536-3.584q4.096 0 4.608-1.024h-2.56q0.512-3.072-1.536-2.048-1.536 0.512-2.048 0.512 0 0.512-1.536 1.024t-2.56 0 0-2.56q0.512 0 1.024-0.512t1.536-1.024q1.024 0 3.328-0.512t3.328-1.024q1.024 0 2.56 0.256t2.048 0.256q1.024 0.512 1.536 1.024t-0.512 1.024q0.512 1.024-2.048 2.048 0 0.512 5.632 0.512 1.024 1.024 0.768 1.792t0.256 1.792 2.048 1.024 2.048 1.536q2.048-1.024 2.56-3.072 0.512 0 1.536-1.536 4.608-5.12 4.608-1.536 3.072-0.512 3.072-5.632 3.584 0.512 3.584 5.632-0.512 0-0.512 1.536h2.048q1.024-0.512 1.024 0.512 0.512 0 0.512-1.024h4.096v-5.632q0-1.024-1.024-1.536t-1.536-0.512l-1.024-0.512q-1.536-2.048-0.768-2.56t3.328-1.792 3.072-1.792l-4.096 0.512q-0.512 0-2.304-0.256t-3.072-0.512-2.304 0.256q2.56 0 3.584 5.632-4.096 1.024-5.632-2.56-0.512-2.048-2.048-1.792t-2.048-0.768l-1.024-0.512q-1.536-0.512-2.56-0.768t-1.024 0.256q-3.584-1.024-3.584-8.704 5.632-4.096 5.632-6.144 2.048-0.512 4.864-1.024t4.352-0.512q0.512-1.536 2.048-1.536 0-2.048 4.608-2.048 0 3.072 3.072-2.048 0.512-1.024 0.512-1.536-0.512 0 0-1.28t1.536-2.816q-1.024 0-0.512-0.512 1.024-1.024 2.816-0.512t1.792 1.536q-1.024 0-1.024 3.072-3.072 3.072 0.512 4.096 0-2.048 3.072 0.512 1.024 1.024-0.512 1.536 1.024 4.608 0 6.144-0.512 0.512-1.28 0.512t-1.28 1.024q2.048 0.512 0.512 7.168h2.56q1.024 0 2.816-0.768t2.816-0.512 1.536 1.792q1.536-1.024 2.304-2.56t2.304 0.512q0-0.512 2.048-2.816t2.56-2.304q0-1.536 1.024-1.536l-0.512-1.024q3.584 0 3.584 0.512 3.072 0 3.072 4.096 0.512 0 1.28-1.536l1.536-3.072t1.28-1.536l2.816-2.816t1.28-1.536 0.512-1.28q1.024-1.024 1.024-2.56 0.512 0 1.024 1.024 1.536 1.536 1.536-0.512 1.024 0 2.304-1.28t1.28-1.792q-1.024 0-0.768-1.024t-0.256-1.024q0-0.512-5.632-0.512-0.512-2.56-3.072-3.072t-5.632 0.256-5.632-0.256q-2.048-1.024-4.864-4.352t-2.816-5.376q1.536 0 3.84 1.792t3.328 2.304q1.024 0 5.12 2.048 0-0.512 0.512-0.512v-0.512q-3.072 0-1.024-3.584 0.512-0.512 0.512-1.024 1.536-2.56 4.096-2.56 0-0.512-1.28-0.512t-1.28-1.024l-2.56-1.536h-3.072l1.024 1.024h1.536v2.048q-1.536 0-3.072-0.768t-2.56-0.768q-2.048-2.048-3.072-2.048-1.024-5.12-3.072-6.144l-3.072-1.536-2.048-2.048q-0.512-1.024-1.024-2.56-1.536-3.584-1.536-4.608-0.512 0-1.792-2.816t-3.328-2.816q-0.512-1.024-2.816-3.072t-2.304-5.12q0.512-0.512 0.768-2.048t0.768-3.328 0.512-2.304q0-4.096-2.048-4.096l-1.024 1.536t-0.512 1.536q0 2.048-2.048 6.144 0 1.024-2.304 0.768t-2.816-0.256q-0.512 1.536-6.656 1.536 0-0.512 0.512-1.024t0.512-1.536q-3.072-1.024-3.584-1.024-1.024 0-2.304 1.28t-2.816 0.768q-7.168-1.024-7.168-8.192-0.512 0-0.512-4.352t0.512-4.352q0-1.024 1.024-3.072t1.024-2.56q1.024 0 3.072-2.048t2.56-2.048q0.512-2.048 2.56-2.048l1.024 0.512 1.024 2.048q-1.536 0.512-0.768 1.792t1.792 1.792q0-1.024 3.072 1.024l3.072 1.024 1.024 1.024q0.512-1.536-0.512-2.048-1.024 0-1.536-1.536l-0.512-1.024q-0.512-1.024-1.024-2.56t-0.512-2.56 0.512-2.304 0-2.304h6.656v1.536q1.536 0 1.28-3.328t0.768-3.328q0-1.024 0.512-3.072t0.512-2.56q2.56-1.536 2.048-4.096 6.144 0 6.144 1.536 3.584 0 2.56-3.584 2.56 0 3.072 1.536t0.512 2.816 1.024 1.28q0 1.536 1.024 0.512l3.072 1.536 1.536 1.024q1.024-0.512 1.024-1.024 2.56 0 4.608 2.048 1.024 0 2.048-2.56t3.072-2.56q6.144 0 6.656 0.512 1.536-1.024 1.536-1.536 0.512 0 1.024-0.512l0.512-0.512h0.512l2.048-2.048q0-1.024 1.28-1.536t1.28-1.024l0.512-0.512 1.536-1.024 4.608-1.536q0.512 1.536 2.048 0 0.512-0.512 1.024-0.512l1.024-1.024q0.512-0.512 2.048-3.584 1.024-1.024 2.048-5.632-0.512 0-0.512-4.096l2.048-0.512q1.024 0 1.024 1.024 1.024 0 2.56-1.024t2.048-1.024q-1.024-1.024 0.512-1.792t1.536 1.28q1.536 0 1.536-5.632 1.024 0 2.304 0.768t2.304 0.768q3.072 0 3.072 0.512 4.096-1.024 6.656-4.096 2.56-2.56 2.816-7.168t-2.304-7.168l-4.096-5.12q0-6.144-0.512-6.144 0-7.168-1.536-7.168 0-1.536-1.28-3.584t-1.792-3.072q-0.512-0.512-3.328-2.304t-3.328-2.816q-0.512 0-2.048-0.512t-2.048-0.512l-1.024-1.536q-1.536-1.536-1.024-1.536 0-0.512-0.256-3.84t-0.768-4.352q-2.048-1.024-1.536-2.048-0.512 0-0.768-0.512t-1.792-0.512q-1.024 0-2.56-1.28t-1.536-2.816q-1.024-4.096-3.072-5.632l-1.536-1.024q-2.048-1.024-2.048-2.048v-4.096q-3.072 0-4.096-2.048-2.048 0-5.632-2.048 0-2.048-1.024-2.048 0-2.048-1.536-1.536t-2.048 0q1.024 0 1.024-3.072 0-0.512-3.072-4.608l-0.512-1.024q-1.024-1.536-1.536-1.536 0-0.512-0.256-2.048t-0.256-2.56v-1.536l1.024 1.024q0 0.512 1.024-0.512-0.512-1.024-1.536-2.048t-1.536-2.56q-2.56 0-2.56-4.096 0-1.024 0.512-1.024 0-0.512 1.024-2.56l-13.824 4.608q0 18.944 2.048 18.944 0 4.608 1.024 4.608v7.168q-0.512 1.024 0.768 3.328t1.28 3.328q1.536 0.512 1.792 5.12t0.256 8.704 1.024 4.096q0 2.048 0.768 10.496t-0.256 10.496l-3.584 4.096q-2.56 0-4.608 3.328t-2.048 6.4q-1.536 4.608-1.536 5.12 0.512 0-1.024 2.304t-3.072 4.864l-2.048 2.56q-1.536 1.536-1.536 2.304t1.024 2.56 1.024 3.328q-2.048 1.024-1.024 5.376t2.56 4.352q0 1.536 1.536 2.048 0.512-1.536 1.536-1.024 1.536 1.536 0 2.56v6.656q0 5.12-2.56 5.12-1.024 0-2.048-2.56-0.512 0.512-2.56 0.768t-3.584 1.024-1.536 2.304q1.024 3.072-4.096 5.632 0.512 2.048-2.816 4.352t-5.376 2.304q0 0.512-1.024 0.768t-1.024 0.768q-1.024 0-2.56 1.536t-3.072 1.536q-2.048 0-5.12 1.28t-4.608 1.28q-0.512 1.024-3.328 1.536t-3.328 1.536q-3.584 0-3.584 6.656 0 9.216-4.608 9.216 0 1.536-2.048 3.328t-3.072 1.792q-1.536 3.584-2.56 3.584 0 2.048-3.072 4.608-1.536 1.024-1.536 0-0.512-1.024 1.28-2.816t1.792-2.816q0.512 0 4.096-6.656 3.072-5.12 1.536-5.632-2.048-0.512-5.12 4.096-1.024 2.048-1.024 3.072-1.024 0.512-2.304 3.328t-1.28 3.84q-0.512 0.512-1.28 2.048t-1.28 3.072l-0.512 1.024q0 5.12-5.632 5.12l-3.584 4.608q0 5.12-4.096 6.656 0 1.024-0.512 4.608t0 5.12q0 11.776-5.12 15.872-16.896-34.816-16.896-73.728 0-71.68 50.944-122.368t122.624-50.688q41.984 0 78.336 18.944t60.416 51.2q-3.584-1.024-4.608 4.608-1.536 8.704 1.024 16.384 2.56-1.024 3.072 0-2.048 0.512-1.024 3.072 5.12-3.584 5.12 1.024l-1.024 1.024q0 1.024 0.512 1.536t0.768 0.256 0.256-1.28q1.536 0 1.792 2.304t0.768 2.816q0-5.632 1.536-6.144 1.024-1.024-0.256-2.304t-1.28-1.792q-1.024-0.512-1.024-3.072h-1.536q0-1.536-0.512-4.352t-0.512-3.84q-1.024 0-1.024-8.192zM340.992 292.096q1.024-0.512 1.024-2.048 12.8 0 12.8 1.536 0.512-1.024 1.024-1.536t1.024 1.024q0.512 0 2.304-1.536t3.84-1.024l3.584 2.048-1.024 0.512q0 3.072-2.56 4.864t-3.072 2.304q-0.512 0-1.792 0.512t-2.304 0.512q-1.536 1.024-3.072-0.512-1.536-1.024-1.536 0-0.512 1.024-1.536 1.024 0 4.096-4.608 3.584-0.512-1.536-1.792-3.584t-1.792-3.84-0.512-3.84zM265.216 347.392q0-2.56-0.512-2.56-2.56-1.536-5.12-1.536h-5.632q-1.024 0-5.12 1.024 0 0.512 0.512 1.024 1.536 2.048-0.512 2.048 3.584 1.536 4.096 1.536v-2.56q0-0.512 1.024-0.256t2.304 0.512 1.792 0.768q1.536 0 3.072 0.512 0.512 0.512 0.768 0.256t0.256-1.792zM282.112 323.328q0 1.024-0.512 2.048t-0.512 2.048q0 1.536 1.536 1.28t2.048 1.792q1.536-0.512 0-1.536v-2.048q1.024 0 2.048 1.024t1.536 1.024q-1.024-3.584-0.512-4.096 2.56-2.56 2.048-3.072 3.584 0 2.56-5.632 1.536 0 1.536 1.536 1.024-0.512 1.024-1.28t-1.024-0.768q-1.536-2.56-7.68-2.56 0 3.072-2.048 1.536-1.536-0.512-1.024 2.048 0.512 1.024 0.512 1.536-1.024 0.512 2.56 1.024-0.512 4.096-4.096 4.096zM274.432 315.136q-1.024 1.024 0 4.096-1.536 0.512 0.512 1.024l2.56 1.024q-2.048 0-1.024 2.048h1.024q0.512-1.024 1.024-0.512h2.048q0.512-0.512 0-1.536-1.536-6.144-6.144-6.144zM282.112 312.064q0.512 0 0.512 0.512h1.536q0-1.024-0.768-1.024t-1.28 0.512zM200.704 301.312q0.512 0.512 2.048 1.536 0-1.536-2.048-1.536zM306.176 294.656q1.024 0-0.512-3.072-0.512 1.024-1.024 2.56 1.536 0 1.536 0.512zM306.176 290.56q1.024 0 0.768-2.304t-2.816-1.792q0 3.584 1.024 3.584l0.512-1.024q0.512 0.512 0.512 1.536zM317.44 282.88q0-2.048-0.512-2.304t-2.304 0.768-2.816 1.024h2.56q0.512-0.512 3.072 0.512zM372.736 218.88q3.072 0 3.072 0.512 5.12 0 8.192 1.536 0-2.048-1.28-4.864t-0.768-4.864q-1.536 0-1.536-2.56l-1.024-1.024q-1.024-1.536-2.048-2.048 0-1.024-4.608-5.632-0.512-1.024-2.816-3.328t-2.816-3.328q-7.168-7.168-5.12-7.168 0-12.288 1.024-12.288l0.512-3.072q0.512-3.072 0.512-5.12t-0.512-2.56q0-1.536-1.024-3.84t-1.024-3.328l-1.024-0.512-1.536-1.536q-1.024 0-2.048-1.792t-1.536-1.792q0-2.048-0.512-5.632t-0.512-5.632l-0.512-2.048-1.024-3.072-0.512-2.048q-7.68-4.096-7.68-8.704-3.584-5.12-4.096-6.144-9.728 0-9.728-2.048h-7.68q0 1.024-0.512 3.072t-0.512 3.584q-0.512 0-1.024 1.792t-1.024 1.792q0 0.512-1.28 3.328t-2.304 5.632-0.512 2.816q0 4.608-1.536 4.608 0 2.048-1.28 5.632t-1.28 5.12q-0.512 0-1.024 2.048t-0.768 3.84 0.256 2.304q0 2.048 2.048 11.264 0.512 4.608-1.536 11.776-2.048 0-2.048 3.072-3.072 2.048-3.072 7.68 3.072 3.072 1.536 10.24-1.536 0.512-7.168 0.512-0.512 1.536-3.84 2.048t-8.448 0l-5.12-0.512q-0.512-1.024-2.304-0.768t-4.352 1.28-2.56 1.536q-1.536 0-3.84 2.304t-2.304 4.352q-2.048 0.512-4.096 4.864t-2.048 6.4q-2.048 2.048 0 4.608 0 1.536-1.536 6.144 0 1.024 0.768 2.048t0.768 2.048q0 5.632 2.048 9.728 0 0.512 1.024 2.048t1.024 2.048q1.024 1.536 1.536 1.536 1.024 0.512 1.536 1.536 1.024 0.512 2.56 2.56 1.024 1.536 1.536 2.048 1.536 0.512 0 2.048 2.048 0 2.048 5.12 1.024 1.536 3.072 1.536l0.512 0.512q2.048 2.56 2.56 2.56 1.024 1.536 3.072 1.536 0.512-0.512 1.28-0.512t2.304 0.512l1.536 0.512q2.56 3.584 7.168 3.584 0.512 1.024 2.56 0.768t5.376-0.768 3.84-0.512v1.024q1.536-0.512 3.584-5.12t2.048-6.144h4.096q0-2.048 5.12-2.048 8.192 0 8.192 3.072 3.072 0 3.072-3.072h3.072t4.352-0.256 3.84-1.024 1.024-1.28q1.024 0 2.048-1.536t1.536-1.536q0-1.536 1.28-4.352t2.304-2.816q0-4.096 2.56-5.632 3.072-7.168 6.144-9.216-0.512-1.024 0.768-3.072t1.28-2.56q0.512-3.072 1.536-3.584 0-2.048 2.56-5.888t4.096-3.84q0-0.512-0.512-1.024t1.024-1.024zM159.744 247.552q0-1.536 1.536 0 0-2.048-2.048-1.024-1.024 0-0.512 1.536 0.512 0 1.024-0.512zM167.936 248.064q2.048-0.512 3.84-1.792t2.816-1.28q1.536-1.536 1.792-2.048t-0.768-1.024q-4.096-1.024-6.144 2.56-2.56 0-5.12 2.56 3.072 0 3.584 1.024zM185.344 240.896l1.024-0.512q1.024-1.024 1.536-2.048l0.512-0.512h-6.656q-0.512-0.512-2.304-0.512t-2.304 1.024h3.584l-1.024 2.048q0.512 0 2.56-0.512t3.072-0.512v1.536zM169.472 238.336q2.048 0 2.048-1.536-2.56 0-2.048 1.536zM172.032 236.8l1.024 1.536q0.512 0 0.512-1.024-0.512-0.512-1.536-0.512zM192.512 238.336q1.536 0 1.536-0.512-2.048 1.024-1.536 0.512zM190.976 238.336l1.024-0.512q-0.512 0-0.512-0.256t-0.512-0.256v1.024zM182.784 224q0.512 0.512 0.512 1.024l0.512-0.512q0-0.512-1.024-0.512zM378.88 164.608q0 1.024 1.024 1.536z" />
<glyph unicode="&#x48;" d="M351.232 238.848v-193.536h-90.624v120.32h-77.824v-120.32h-93.696v193.536h-78.336l210.944 210.432 210.432-210.432h-80.896z" horiz-adv-x="443" />
<glyph unicode="&#x49;" d="M452.608 215.808v-160.768h-428.032v160.768l80.384 214.016h267.264zM297.984 215.808h101.376l-53.76 164.864-214.016 0.512-53.248-165.376h100.864l25.088-49.152h66.56z" horiz-adv-x="477" />
<glyph unicode="&#x4a;" d="M434.176 369.408l-62.464-62.464 41.984-41.984-189.44-21.504 22.016 188.928 41.472-41.472 62.464 62.464zM69.632 171.776l-41.984 41.984 188.928 22.016-22.016-189.44-41.472 41.984-62.464-62.464-83.456 83.456zM93.184 294.656l100.864-34.816-113.152 9.216zM201.216 309.504v-43.52l-14.336 40.96zM349.184 185.088l-100.864 35.328 113.152-9.728zM241.152 170.752v43.52l14.336-41.472z" horiz-adv-x="442" />
<glyph unicode="&#x4b;" d="M271.36 275.712l162.816-162.816v-86.016h-86.528v66.048h-65.536v65.536h-65.536l-31.232 31.232q-20.48-7.168-42.496-7.168-55.808 0-95.744 39.68t-39.936 96 39.936 96 95.744 39.68 95.744-39.68 39.936-96q0-22.016-7.168-42.496zM114.688 301.824q18.944 0 32.256 13.312t13.312 32.256-13.312 32.256-32.256 13.312-32.512-13.312-13.568-32.256 13.568-32.256 32.512-13.312z" horiz-adv-x="445" />
<glyph unicode="&#x4c;" d="M235.52 454.912q89.088 0 152.064-62.976t62.976-152.064-62.976-152.064-152.064-62.976-152.064 62.976-62.976 152.064 62.976 152.064 152.064 62.976zM235.52 78.592q66.56 0 113.92 47.104t47.36 114.176-47.36 114.176-113.92 47.104-113.92-47.104-47.36-114.176 47.36-114.176 113.92-47.104zM237.568 366.848q52.736 0 90.368-37.632t37.632-90.88-37.376-90.88-90.624-37.632-90.88 37.632-37.632 90.88 37.632 90.88 90.88 37.632zM202.752 279.808q16.896 16.896 52.224 35.84l-15.36 20.48q-2.048 0.512-6.144 0.512-31.232 0-59.648-28.16t-28.416-59.392q0-3.072 0.512-4.608l21.504-16.384q19.456 35.84 35.328 51.712zM276.48 175.36q8.192 0 14.336 6.144t6.144 14.848-5.888 14.848-14.592 6.144-14.848-6.144-6.144-14.848 6.144-14.848 14.848-6.144z" />
<glyph unicode="&#x4d;" d="M456.704 112.384l-139.776 134.144 139.776 119.808q1.536-4.096 1.536-7.68v-238.080q0-4.096-1.536-8.192zM243.712 217.856l-36.864 29.696-18.432 15.36-140.8 120.32q5.12 1.024 7.168 1.024h377.856q2.048 0 7.168-1.024l-140.8-120.32-18.432-15.36zM432.64 94.976h-377.856q-2.56 0-6.656 1.024l141.312 135.68 54.272-44.544 54.784 44.544 140.8-135.68q-4.096-1.024-6.656-1.024zM30.72 366.336l139.776-119.808-139.776-134.144q-1.536 4.096-1.536 8.192v238.080q0 3.584 1.536 7.68z" horiz-adv-x="488" />
<glyph unicode="&#x4e;" d="M438.784 439.040q8.704 0 11.776-3.072t3.072-11.776v-335.36q0-8.704-3.072-11.776t-11.776-3.072h-371.2q-14.336 0-27.392 13.568t-13.056 26.88v246.272q0 8.704 3.072 11.776t11.776 3.072h47.104v48.64q0 8.704 3.072 11.776t11.776 3.072h334.848zM428.544 99.584v313.856h-314.368v-291.328h-25.088v227.84h-36.352v-235.52q0-3.584 5.632-9.216t9.216-5.632h360.96zM261.632 380.672v-114.176h-114.176v114.176h114.176zM391.68 364.8v-18.944h-94.72v18.944h94.72zM391.68 306.432v-18.944h-94.72v18.944h94.72zM391.68 228.608v-18.944h-244.224v18.944h244.224zM391.68 169.728v-18.944h-244.224v18.944h244.224z" horiz-adv-x="483" />
<glyph unicode="&#x4f;" d="M451.584 357.12v-261.632h-35.84v261.632h35.84zM355.84 357.12h24.064v-261.632h-284.672v261.632h26.624q34.816 68.096 62.464 68.096h105.984q16.384 0 34.048-20.736t31.488-47.36zM263.168 363.264q6.656 0 11.264 4.608t4.608 11.264-4.608 11.008-11.264 4.352h-53.248q-6.656 0-11.008-4.352t-4.352-11.008 4.352-11.264 11.008-4.608h53.248zM24.576 357.12h35.328v-261.632h-35.328v261.632z" horiz-adv-x="476" />
<glyph unicode="&#x50;" d="M368.128 349.952h73.216v-253.44h-337.408v0.512l-90.624 236.032 314.88 121.344zM337.92 349.952l-26.112 68.096-176.64-68.096h202.752zM49.664 317.184l54.272-141.824v162.816zM132.096 124.672h281.088v197.12h-281.088v-197.12zM357.888 245.504l29.696-97.28h-221.184l52.736 57.344 33.792-21.504 62.976 90.624 19.456-36.352zM194.048 236.8q-11.264 0-18.944 7.68t-7.68 18.944 7.68 18.944 18.944 7.68 18.944-7.68 7.68-18.944-7.68-18.944-18.944-7.68z" horiz-adv-x="466" />
<glyph unicode="&#x51;" d="M348.672 362.752q31.232-27.648 48.896-66.304t17.664-82.176q0-82.432-58.368-141.056t-140.8-58.624-140.8 58.624-58.368 141.056q0 43.52 17.92 82.432t49.152 66.56q10.24 8.704 23.808 7.936t22.272-11.008q8.704-9.728 7.936-23.296t-11.008-22.272q-45.056-39.936-45.056-100.352 0-55.808 39.168-95.232t94.976-39.424 94.976 39.424 39.68 95.232q0 59.904-45.056 99.84-10.24 9.216-11.008 22.528t8.448 23.552q8.704 9.728 22.272 10.496t23.296-7.936zM216.576 180.992q-13.312 0-22.784 9.728t-9.472 23.040v208.384q0 13.312 9.472 23.040t22.784 9.728 23.040-9.728 9.728-23.040v-208.384q0-13.312-9.728-23.040t-23.040-9.728z" horiz-adv-x="432" />
<glyph unicode="&#x52;" d="M342.016 149.76v44.544l53.248 35.84v-134.144h-374.272v267.776h167.424q-1.024-0.512-3.328-1.536t-3.328-1.536q-44.544-19.968-72.192-50.688h-35.328v-160.256h267.776zM449.024 309.504l-160.256-108.032v70.144q-46.080 0-72.192-3.584-25.088-3.072-45.824-10.752t-32.512-17.152-19.968-18.176-11.264-14.336l-3.072-6.144q0 27.648 10.24 51.2t26.368 38.656 36.096 26.88 39.68 17.92 35.84 10.24 26.368 5.12l10.24 1.024v64.512z" horiz-adv-x="466" />
<glyph unicode="&#x53;" d="M422.912 295.168q5.12-5.632 4.096-12.288 0-6.656-5.12-14.336-1.536-2.048-8.192-7.168l-94.208-61.952q-1.024-0.512-2.816-3.584t-1.28-5.12v-2.048l41.472-121.344q2.048-5.632 2.048-11.776 0-7.68-3.584-12.8-5.632-8.192-15.36-8.192h-0.512q-8.192 0.512-18.432 7.68l-97.28 79.36q-1.536 1.536-5.12 1.536t-4.608-1.536l-92.672-78.848q-9.216-7.168-18.432-7.68-10.752-1.024-15.872 7.68-4.096 5.632-4.096 13.312 0 3.584 2.048 10.752l36.864 120.832v2.048q0.512 2.56-1.024 5.632t-3.072 3.584l-94.72 62.464q-5.12 3.584-8.192 7.168-5.632 6.656-5.632 14.336 0 7.168 4.096 12.288 4.608 4.608 8.192 6.144 6.144 2.56 13.824 2.56h117.76q3.072 0 5.632 2.048 3.584 2.56 3.584 5.12l34.304 122.368q2.048 7.168 4.608 10.752 6.656 9.216 16.896 9.728 10.24-0.512 16.896-9.728 1.536-2.048 5.12-10.752l33.792-122.368q0-2.56 3.584-5.12 2.56-2.048 5.632-2.048h117.76q4.608 0 10.24-1.536 7.168-2.048 11.776-7.168z" horiz-adv-x="437" />
<glyph unicode="&#x54;" d="M298.45 388.249v-343.846h-79.35v343.846h-132.249v79.35h343.846v-79.35h-132.249z" />
<glyph unicode="&#x55;" d="M389.12 174.848q23.552-10.24 37.12-22.784t15.104-19.712l1.536-7.168v-44.032h-428.032v44.032q0 1.024 0.256 3.072t3.072 7.68 7.936 11.264 16.128 13.312 25.856 14.336q6.144 2.56 27.648 14.848t44.544 22.016 48.128 14.336q-16.896 17.408-36.864 68.608-5.632 14.336-5.632 51.2 0 3.584-0.512 15.872t-0.256 21.248 1.792 15.104q15.872 56.832 81.408 56.832 65.024 0 80.896-56.832 2.048-6.144 2.304-15.104t-0.512-20.992-0.768-16.128q0-36.864-5.12-51.2-19.456-49.152-36.864-68.608 25.6-4.096 48.384-13.824t44.544-22.272 27.904-15.104z" horiz-adv-x="458" />
<glyph unicode="&#x56;" d="M337.408 308.992l120.32 56.832v-229.888l-120.32 56.832v0.512-52.736q0-9.728-6.656-16.384t-16.384-6.656h-261.12q-9.728 0-16.384 6.656t-6.656 16.384v221.696q0 9.728 6.656 16.384t16.384 6.656h261.12q9.728 0 16.384-6.656t6.656-16.384v-53.248z" horiz-adv-x="486" />
<glyph unicode="&#x57;" d="M360.448 123.648v92.672l47.104 47.616v-140.288q0-26.112-18.432-44.544t-44.544-18.432h-251.904q-26.112 0-44.544 18.432t-18.432 44.544v252.416q0 26.112 18.432 44.544t44.544 18.432h251.904q8.704 0 12.288-1.024l-45.568-46.080h-218.624q-6.656 0-11.264-4.608t-4.608-11.264v-252.416q0-6.656 4.608-11.264t11.264-4.608h251.904q6.656 0 11.264 4.608t4.608 11.264zM220.672 256.768l181.248 181.248 67.584-67.584-181.248-181.248-99.84-32.256 32.256 99.84zM280.064 202.496l-45.568 45.568-22.016-67.072z" horiz-adv-x="489" />
<glyph unicode="&#x58;" d="M288.117 335.365l121.356 40.716 101.792-303.392-121.356-40.716zM0 32h128v352h-128v-352zM32 320h64v-32h-64v32zM160 32h128v352h-128v-352zM192 320h64v-32h-64v32z" />
<glyph unicode="&#x59;" d="M217.6 345.856l-74.24-209.408-64.512 98.816-41.472-38.912-11.264-10.24-23.552 19.968 82.944 77.312 49.152-75.264 87.552 247.296 80.384-309.76 67.072 211.456 59.392-189.952-31.232-8.192-28.16 91.136-70.144-220.672z" horiz-adv-x="441" />
<glyph unicode="&#x5a;" d="M205.824 406.784v-188.928h189.952q0-78.336-55.296-133.632t-133.632-55.296-133.632 55.296-55.296 133.632q0 77.824 55.040 133.12t132.864 55.808zM253.952 454.4q78.336 0 133.888-55.552t55.552-133.888h-189.952v189.44h0.512z" horiz-adv-x="460" />
<glyph unicode="&#x5b;" d="M227.84 439.552v-142.336h209.408v-94.72h-209.408v-141.824l-218.624 189.44z" horiz-adv-x="441" />
<glyph unicode="&#x5c;" d="M363.52 392.448h44.544v-378.368h-378.88v378.368h45.568v23.552q0 17.92 10.24 27.648t28.672 9.728 28.928-9.984 10.496-27.392v-23.552h26.624v23.552q0 17.408 10.496 27.392t28.928 9.984 28.672-9.728 10.24-27.648v-23.552h26.624v23.552q0 17.408 10.496 27.392t28.928 9.984 28.928-9.984 10.496-27.392v-23.552zM306.176 416v-62.976q0-16.384 17.92-16.384 9.728 0 14.080 3.84t4.352 12.544v62.976q0 8.704-4.352 12.544t-14.080 3.84q-17.92 0-17.92-16.384zM200.704 416v-62.976q0-8.704 4.352-12.544t14.080-3.84q17.92 0 17.92 16.384v62.976q0 16.384-17.92 16.384-9.728 0-14.080-3.84t-4.352-12.544zM95.744 416v-62.976q0-16.384 17.92-16.384 9.728 0 14.080 3.84t4.352 12.544v62.976q0 8.704-4.352 12.544t-14.080 3.84q-17.92 0-17.92-16.384zM376.32 45.312v263.168h-315.392v-263.168h315.392zM219.648 146.688q0-23.040-17.92-35.84t-46.080-12.8q-18.432 0-37.376 7.168l3.584 26.624q17.92-7.168 37.376-7.168 12.288 0 19.456 5.632t7.168 14.336q0 11.264-8.448 16.64t-30.464 6.4v26.624q32.256 2.56 32.256 19.456 0 14.336-21.504 14.336-14.848 0-31.232-7.68l-3.584 26.624q17.408 7.68 43.008 7.68 23.040 0 36.352-9.216t13.312-23.552q0-25.6-33.28-36.864v-0.512q37.376-10.24 37.376-37.888zM274.944 213.248l-26.624-10.24-3.584 26.624 46.592 22.528h15.872v-151.552h-32.256v112.64z" horiz-adv-x="437" />
<glyph unicode="&#x5d;" d="M212.48 60.672v141.824h-208.896v94.72h208.896v142.336l219.136-189.44z" horiz-adv-x="441" />
<glyph unicode="&#x5e;" d="M383.488 388.864q11.264-23.552-1.536-67.584-12.288-43.52-2.56-119.808-4.096-1.024-10.752-2.048t-25.088-4.096-33.792-4.096-31.232-1.024-23.808 4.608-5.376 13.312q7.68 24.576-24.576 23.552-31.232-1.024-93.184-24.576-18.944-7.168-32.256-1.536v204.288q11.264 3.072 29.696 7.68t57.344 12.8 64.768 7.424 25.856-12.544q0-1.536-1.024-7.424t-1.792-11.776-0.768-11.776 2.56-9.216 8.192-2.816q15.36 2.048 40.192 3.584t42.24 2.048zM74.24 432.896v-418.304h-43.52v418.304q0 8.704 6.4 15.104t15.616 6.4q8.704 0 15.104-6.4t6.4-15.104z" horiz-adv-x="397" />
<glyph unicode="&#x5f;" d="M30.208 197.376v101.888h359.424v-101.888h-359.424z" horiz-adv-x="420" />
<glyph unicode="&#x60;" d="M156.672 289.536l-77.824 78.336-48.64-49.152v141.824h141.824l-48.64-48.64 77.824-77.824zM400.896 134.4l48.64 48.64v-141.312h-141.824l48.64 48.64-77.824 77.312 44.544 44.544zM323.072 289.536l-44.544 44.544 77.824 77.824-48.64 48.64h141.312v-141.824l-48.128 48.64zM156.672 212.224l44.544-44.544-77.824-77.824 48.64-48.64-141.824 0.512v141.824l48.64-49.152z" horiz-adv-x="479" />
<glyph unicode="&#x61;" d="M441.354 335.349q-10.952 0-18.805 7.852t-7.852 18.597q0 21.904-15.498 37.401t-37.401 15.498h-26.45q-10.745 0-18.598-7.645t-7.852-18.805v-264.497q0-10.745 7.852-18.598t18.805-7.852 18.598-7.646 7.646-18.598-7.646-18.805-18.805-7.852h-158.697q-10.745 0-18.597 7.646t-7.852 18.805 7.852 18.805 18.804 7.646 18.597 7.852 7.645 18.598v264.497q0 11.159-7.645 18.805t-18.804 7.645h-26.45q-21.904 0-37.401-15.498t-15.498-37.401q0-10.745-7.645-18.597t-18.597-7.852-18.805 7.852-7.852 18.597v79.349q0 10.745 7.852 18.597t18.597 7.852h370.296q10.745 0 18.597-7.852t7.852-18.597v-79.349q0-11.159-7.646-18.805t-18.598-7.645z" />
<glyph unicode="&#x62;" d="M419.661 331.792c38.822-27.515 70.685-64.546 92.339-107.792-47.561-94.979-144.343-160-256-160-31.283 0-61.396 5.106-89.589 14.542l38.978 38.978c16.529-3.65 33.486-5.52 50.611-5.52 44.779 0 88.427 12.743 126.223 36.852 30.081 19.188 55.572 44.888 74.718 75.149-18.526 29.283-43.007 54.275-71.825 73.247l34.545 34.544zM256 131c-11.362 0-22.376 1.488-32.864 4.267l156.593 156.592c2.781-10.486 4.271-21.497 4.271-32.859 0-70.692-57.308-128-128-128zM480 480h-26.869l-109.806-109.806c-27.538 8.962-56.877 13.806-87.325 13.806-111.659 0-208.441-65.021-256-160 21.329-42.596 52.564-79.154 90.597-106.534l-90.597-90.597v-26.869h26.869l453.131 453.131v26.869zM208 323c24.022 0 43.923-17.647 47.446-40.685l-54.762-54.762c-23.037 3.524-40.684 23.425-40.684 47.447 0 26.51 21.49 48 48 48zM55.058 224c19.146 30.262 44.637 55.962 74.717 75.148 1.959 1.25 3.938 2.461 5.929 3.65-4.979-13.664-7.704-28.411-7.704-43.798 0-29.262 9.825-56.224 26.349-77.781l-29.275-29.275c-28.036 18.821-51.877 43.386-70.016 72.056z" />
<glyph unicode="&#x63;" d="M392.704 258.816q23.552-9.728 37.632-30.72t14.080-47.104q0-34.816-24.576-59.392t-59.392-24.576h-105.984v82.944h54.272q6.144 0 7.68 3.328t-2.048 8.448l-74.24 88.576q-4.096 5.12-9.984 5.12t-9.984-5.12l-74.24-88.576q-4.096-5.12-2.56-8.448t8.192-3.328h54.272v-82.944h-103.424v0.512q-34.816 0.512-59.648 25.6t-24.832 59.904q0 23.552 11.264 43.008t30.72 31.232q-2.56 9.216-2.56 17.408 0 24.064 17.152 41.216t41.728 17.152q19.968 0 35.328-12.288 15.872 32.768 46.592 52.736t68.096 19.968q52.736 0 89.856-37.12t37.12-89.856q0-5.12-0.512-7.68z" horiz-adv-x="465" />
<glyph unicode="&#x64;" d="M235.008 453.888q89.088 0 151.808-62.976t62.72-151.552q0-89.088-62.72-151.808t-151.808-62.72q-88.576 0-151.552 62.72t-62.976 151.808q0 88.576 62.976 151.552t151.552 62.976zM396.288 239.36q0 66.56-47.36 113.664t-113.92 47.104q-51.2 0-93.184-29.696l224.256-224.256q30.208 41.472 30.208 93.184zM74.24 239.36q0-66.56 47.104-113.664t113.664-47.104q52.736 0 93.696 29.696l-224.256 224.768q-30.208-42.496-30.208-93.696z" horiz-adv-x="470" />
<glyph unicode="&#x65;" d="M281.6 453.888l-98.816-175.104h80.896l-261.12-243.712 122.368 197.632h-81.92z" horiz-adv-x="285" />
<glyph unicode="&#x66;" d="M28.672 308.48q76.288 0 140.8-37.632t102.4-102.144 38.4-140.8h-81.92q-1.024 82.432-58.88 140.288-58.368 58.368-140.8 58.368v81.92zM28.672 454.4q86.528 0 165.12-33.792t135.936-90.88 91.136-136.192 34.304-165.632h-81.92q-0.512 93.696-46.848 172.8t-125.44 125.184-172.288 46.080v82.432zM85.504 142.080q23.552 0 40.192-16.64t16.64-40.192-16.64-40.192-40.192-16.64-40.192 16.64-16.64 40.192 16.64 40.192 40.192 16.64z" horiz-adv-x="467" />
<glyph unicode="&#x67;" d="M442.88 114.432v-17.92h-77.312v24.576q-2.048 22.016-28.16 37.376-5.12 8.192-11.264 24.064-2.56 5.632-2.56 20.48 0 18.944 0.512 20.992 6.656 22.528 32.768 22.528t32.768-22.528v-20.992q0-15.36-2.048-20.48-7.68-19.968-14.848-27.648 10.24-2.048 19.456-5.888t18.176-8.704 11.008-5.888q9.728-4.096 15.104-9.216t5.888-7.68zM92.16 121.088v-24.576h-77.312v17.92q0 1.024 0.512 3.072t5.888 7.168 15.104 9.216q2.56 1.024 11.008 6.144t17.664 8.96 19.456 5.888q-7.168 7.68-14.848 27.648-2.048 5.12-2.048 20.48 0 18.944 0.512 20.992 5.632 22.528 32.256 22.528 26.112 0 32.768-22.528 0.512-2.048 0.512-20.992 0-15.36-2.048-20.48-7.68-18.432-12.288-24.576-27.136-16.384-27.136-36.864zM317.44 148.224q12.8-5.632 20.224-12.544t8.448-11.008l1.024-4.096v-24.064h-236.544v24.064q0 1.536 0.768 4.352t8.192 9.984 20.736 13.312q3.072 1.536 14.848 8.192t24.576 12.032 26.624 7.936q-9.216 10.752-19.968 37.888-3.072 6.656-3.072 28.672 0 27.136 0.512 28.672 8.704 31.232 44.544 31.232t45.056-31.232q0.512-1.536 0.512-28.672 0-20.992-3.072-28.672-10.752-27.648-20.48-37.888 14.336-2.56 26.88-7.68t25.088-12.288 15.104-8.192z" horiz-adv-x="458" />
<glyph unicode="&#x68;" d="M434.176 313.6q12.8-34.816 12.8-73.728t-12.8-73.728q-5.12-14.336-20.48-14.336-3.072 0-5.12 0.512l-3.584 1.024q-28.16-56.832-86.528-86.528l1.024-3.584q2.048-8.192-1.792-15.36t-11.52-10.24q-36.864-12.8-73.728-12.8-37.376 0-74.24 12.8-7.68 3.072-11.52 10.24t-1.792 15.36l1.024 3.584q-57.344 28.16-87.040 86.528l-3.584-1.024q-1.536-0.512-5.12-0.512-14.848 0-19.968 14.336-13.312 35.84-13.312 73.728t13.312 73.728q5.12 14.336 19.968 14.336 1.536 0 5.632-1.024l3.072-0.512q29.696 58.88 87.040 86.528l-1.024 3.584q-2.048 8.192 1.792 15.36t11.52 10.24q36.864 12.8 73.728 12.8 38.4 0 74.24-13.312 7.68-2.56 11.52-9.728t1.792-15.36l-1.024-3.584q57.856-28.672 87.040-86.528l3.072 0.512q4.096 1.024 5.632 1.024 14.848 0 19.968-14.336zM413.696 173.312q11.776 32.256 11.776 66.56 0 33.792-11.264 66.56l-84.992-20.992q10.24-21.504 10.24-45.568t-10.24-45.568zM298.496 58.112l-20.48 84.48q-21.504-10.24-45.568-10.24t-46.080 10.24l-20.48-84.48q31.232-11.776 66.56-11.776 34.816 0 66.048 11.776zM287.232 162.048q6.144-3.584 8.704-8.192 12.288 8.704 22.528 22.016-5.632 3.072-8.704 9.216-4.096 8.704 0 18.432 8.192 16.384 8.192 36.352 0 19.456-8.192 36.352-4.096 9.216 0 18.432 3.584 6.144 8.704 9.216-9.728 12.8-22.528 22.016-3.584-6.144-8.704-8.192-4.096-2.048-9.216-2.048-5.632 0-9.216 2.048-16.896 8.192-36.864 8.192-19.456 0-36.352-8.192-3.584-2.048-9.216-2.048-5.12 0-9.216 2.048-6.144 3.584-8.704 8.192-12.8-9.216-22.528-22.016 5.632-3.072 8.704-9.216 4.096-9.216 0-18.432-8.704-18.432-8.704-36.352 0-18.432 8.192-36.352 4.608-9.728 0-18.432-2.048-5.632-8.192-9.216 8.192-11.264 22.528-22.528 2.56 5.12 8.704 8.704 4.096 2.048 9.216 2.048 5.632 0 9.216-2.048 16.896-8.192 36.864-8.192 19.456 0 36.352 8.192 3.584 2.048 9.216 2.048 5.12 0 9.216-2.048zM38.4 239.872q0-32.768 11.776-66.56l84.48 20.992q-10.24 23.040-10.24 45.568 0 23.040 10.752 45.568l-84.992 20.992q-11.776-34.304-11.776-66.56zM231.936 433.408q-34.816 0-66.048-11.776l20.48-84.48q22.016 10.24 45.568 10.24 24.064 0 46.080-10.24l20.48 84.48q-31.232 11.776-66.56 11.776z" horiz-adv-x="464" />
<glyph unicode="&#x69;" d="M251.52 469.888q89.088 0 152.064-62.976t62.976-152.064-62.976-152.064-152.064-62.976q-88.576 0-151.808 62.976t-63.232 152.064 63.232 152.064 151.808 62.976zM279.168 403.328q-15.872-0.512-25.088-11.264t-9.216-23.040q0-12.8 6.912-20.736t18.688-7.936h0.512q14.848 0 24.832 10.496t9.984 24.832q0 11.776-6.656 18.944-7.68 8.704-19.968 8.704zM305.28 162.176l1.536 1.536-1.024 2.048-9.216 19.456-2.56-2.048q-7.168-7.168-17.664-14.336t-12.544-7.68v2.56q0 3.584 1.536 10.24l23.552 96.256q3.072 12.8 3.072 29.184 0 9.216-3.072 15.36-3.584 6.144-11.264 6.144-12.8 0-36.608-14.592t-46.848-36.096l-1.536-1.536 8.192-23.040 3.072 2.048q17.92 15.872 28.16 19.968 0-3.072-1.536-10.752l-22.016-93.184q-3.072-15.36-3.072-30.72 0-12.8 5.12-18.432 4.608-5.12 13.312-5.12 11.776 0 36.096 14.848t45.312 37.888z" />
<glyph unicode="&#x6a;" d="M427.52 214.784v-0.512l0.512-0.512v-0.512q9.728-17.92 9.728-40.448 0-9.216-2.56-22.016-6.144-23.552-23.040-40.96l-32.768-32.256q-26.112-26.112-62.976-26.112t-62.464 26.112l-39.424 38.912-24.064 24.576-16.896 16.896q-18.944 18.944-24.576 46.592-1.024 10.24-1.024 15.872 0 8.704 1.536 17.92l1.536 6.144q2.048 7.68 7.168 17.408v0.512q0.512 0.512 1.28 2.048l1.792 3.584 0.512 0.512q0.512 0.512 1.28 1.792t1.28 1.792v0.512l1.024 1.024q0.512 0.512 1.536 1.792t1.536 1.792v0.512l3.072 3.072t2.048 2.56l14.336 14.336 2.048-2.56 29.184-28.672q0-0.512 1.024-1.536t1.024-1.536 0.512-1.792 0.512-1.792l-12.8-12.8q-0.512-0.512-1.536-1.792t-2.048-2.304q0-0.512-0.512-1.024v-0.512q-1.024-1.024-2.048-3.072-0.512 0-0.512-0.512t-0.512-1.024-0.768-1.792-0.256-1.792l-0.512-0.512v-1.024q-2.048-4.608-2.048-11.264 0-7.68 3.584-16.384 2.048-4.096 7.168-10.24l29.184-29.184 20.48-19.968 30.72-31.232q10.752-10.752 26.624-10.752 16.384 0 26.624 10.752l32.768 32.768q6.144 6.144 9.216 14.848 1.536 5.632 1.536 11.776 0 5.12-1.536 10.752-2.56 9.728-9.216 15.872l-50.176 50.176q0.512 3.072 0.512 8.704 0 10.752-1.536 20.48-6.144 34.816-30.208 59.392 19.968-6.144 36.352-21.504l81.408-81.408q9.216-9.216 14.848-19.968 0-0.512 0.512-0.512zM275.456 321.792q19.968-19.968 24.576-46.592 1.536-7.68 1.536-15.872 0-5.632-2.048-17.92l-1.536-6.144q-1.536-6.144-6.656-17.408l-0.512-0.512q-0.512-0.512-1.28-2.048l-1.792-3.584-0.512-0.512q-1.024-2.048-2.56-3.584l-0.512-0.512q-0.512-0.512-0.512-1.024-1.536-1.536-2.56-3.584l-1.536-1.536q-1.024-1.536-4.096-4.608l-14.336-14.336-2.048 2.56-29.184 28.672q-0.512 0.512-1.024 1.536t-1.024 1.536-0.512 1.792-0.512 1.792l12.8 12.8q0.512 0.512 1.536 1.792t2.048 2.304q0 0.512 0.256 0.512t0.256 0.512v0.512q1.024 1.024 2.048 3.072l0.512 0.512q0.512 0.512 0.512 1.024 1.024 2.048 1.536 3.584v0.512q0 0.512 0.512 1.024 1.536 5.632 1.536 11.264 0 7.68-3.584 16.384-2.048 4.096-7.168 10.24l-80.384 80.384q-10.752 10.752-26.624 10.752t-26.624-10.752l-32.768-32.768q-6.144-6.144-9.216-14.848-1.536-5.632-1.536-11.776 0-5.12 1.536-10.752 2.56-9.728 9.216-15.872l50.176-50.176q-0.512-3.072-0.512-8.704 0-11.776 2.048-20.48 5.12-33.28 29.696-59.392-20.48 6.144-36.352 21.504l-81.408 81.408q-9.216 9.216-14.848 19.968 0 0.512-0.512 0.512v0.512l-0.512 0.512v0.512q-9.728 19.456-9.728 40.448 0 9.216 2.56 22.016 6.144 23.552 23.040 40.96l32.768 32.256q26.112 26.112 62.976 26.112t62.464-26.112l39.424-38.912 24.064-24.576z" horiz-adv-x="449" />
<glyph unicode="&#x6b;" d="M336.384 408.32q45.568 0 76.032-25.856t30.464-81.664q0-25.088-13.312-51.712t-26.624-40.448l-13.312-14.336-160.256-159.744-165.888 165.376t-12.8 15.36-16.384 23.552-12.8 28.928-5.632 33.024q0 55.808 30.208 81.664t75.776 25.856q46.080 0 97.792-54.784l9.728-10.752q2.048 2.56 5.888 6.912t15.872 15.872 24.064 19.968 28.928 15.616 32.256 7.168z" horiz-adv-x="459" />
<glyph unicode="&#x6c;" d="M142.848 454.4h309.76v-68.096h-309.76v68.096zM142.848 241.408v68.096h309.76v-68.096h-309.76zM142.848 96v68.096h309.76v-68.096h-309.76zM62.464 454.4q14.336 0 24.32-9.984t9.984-23.808q0-14.336-9.984-24.32t-24.32-9.984q-13.824 0-23.808 9.984t-9.984 24.32q0 13.824 9.984 23.808t23.808 9.984zM62.464 310.016q14.336 0 24.32-9.984t9.984-24.32q0-13.824-9.984-23.808t-24.32-9.984q-13.824 0-23.808 9.984t-9.984 23.808q0 14.336 9.984 24.32t23.808 9.984zM62.464 164.608q14.336 0 24.32-9.984t9.984-23.808q0-14.336-9.984-24.32t-24.32-9.984q-13.824 0-23.808 9.984t-9.984 24.32q0 13.824 9.984 23.808t23.808 9.984z" horiz-adv-x="483" />
<glyph unicode="&#x6d;" d="M394.752 453.376v-305.664q-0.512-26.624-23.808-45.056t-56.576-18.432-56.832 18.944-23.552 45.568 23.552 45.568 56.832 18.944q18.432 0 35.84-6.656v157.696l-180.224-43.008v-253.44q-0.512-26.624-24.064-45.312t-56.32-18.688q-33.28 0-56.832 18.944t-23.552 46.080q0 26.624 23.552 45.568t56.832 18.944q17.92 0 35.328-6.656v262.656h1.024l224.256 53.248z" horiz-adv-x="414" />
<glyph unicode="&#x6e;" d="M388.608 454.4q29.696 0 50.688-20.992t20.992-50.688v-287.232q0-29.696-20.992-50.688t-50.688-20.992h-287.232q-29.696 0-50.688 20.992t-20.992 50.688v287.232q0 29.696 20.992 50.688t50.688 20.992h287.232zM406.528 346.88h-262.656v-59.904h262.656v59.904zM132.608 207.104h-49.152v-58.368h49.152v58.368zM83.456 217.856h49.152v58.368h-49.152v-58.368zM143.872 207.104v-58.368h262.656v58.368h-262.656zM143.872 217.856h262.656v58.368h-262.656v-58.368zM132.608 346.88h-49.152v-59.904h49.152v59.904zM83.456 95.488q0-7.168 5.376-12.544t12.544-5.376h31.232v59.904h-49.152v-41.984zM388.608 77.568q7.168 0 12.544 5.376t5.376 12.544v41.984h-262.656v-59.904h244.736z" horiz-adv-x="490" />
<glyph unicode="&#x6f;" d="M443.904 375.040q5.632 0 9.216-3.84t3.584-8.96v-268.8q0-5.632-3.584-9.216t-9.216-3.584h-401.408q-5.632 0-9.216 3.584t-3.584 9.216v268.8q0 5.12 3.584 8.96t9.216 3.84h19.456l14.848 30.208q5.632 11.264 18.432 11.264h80.896q12.8 0 18.432-11.264l14.336-30.208h235.008z" horiz-adv-x="482" />
<glyph unicode="&#x70;" d="M277.504 377.088l78.336-78.336-235.52-235.52-115.712-37.888 37.376 116.224zM96.256 129.28l194.048 194.048-12.8 13.312-194.56-194.56zM355.328 454.912l78.848-78.336-51.712-51.2-78.336 78.336z" horiz-adv-x="438" />
<glyph unicode="&#x71;" d="M442.88 177.92q0-21.504-13.312-38.4t-33.792-22.528q7.68-22.016 33.792-41.984 6.144-4.096-4.608-7.168-23.040-5.632-58.368 10.752-26.624 12.8-49.664 36.352h-153.088q-21.504 0-39.424 13.824 15.36 9.216 28.672 22.016h141.312q37.888 0 64.768 26.88t26.88 64.768v120.32q24.064-2.56 40.448-20.48t16.384-42.496v-121.856zM357.376 242.432q0-26.624-18.432-45.056t-44.544-18.432h-152.576q-25.088-25.6-51.2-36.864t-46.080-11.264q-17.408 0-17.408 5.632 0 1.536 1.536 2.56 25.6 19.456 33.792 41.984-20.48 5.632-33.792 22.528t-13.312 38.912v121.344q0 26.112 18.432 44.8t45.056 18.688h215.552q26.112 0 44.544-18.688t18.432-44.8v-121.344z" horiz-adv-x="466" />
<glyph unicode="&#x72;" d="M371.712 238.336l58.88 58.88v-133.12q0-65.536-65.536-65.536h-260.608v-55.296l-87.552 88.064 87.552 88.064v-61.952h247.808q8.192 0 13.824 5.632t5.632 13.824v61.44zM89.088 259.328l-58.88-58.88v133.12q0 65.024 65.536 65.024h260.608v55.296l87.552-87.552-87.552-88.064v61.952h-247.808q-8.192 0-13.824-5.888t-5.632-14.080v-60.928z" horiz-adv-x="461" />
<glyph unicode="&#x73;" d="M417.792 98.048q11.776-11.776 11.776-27.648 0-14.848-10.24-24.576-9.728-9.728-24.064-9.728-16.384 0-28.16 11.776l-112.128 112.128q-37.888-24.576-84.992-24.576-66.048 0-112.896 46.848t-46.848 112.896 46.848 112.896 112.896 46.848 112.896-46.848 46.848-112.896q0-46.080-24.064-84.48zM259.072 295.168q0 36.864-26.112 62.976t-62.976 26.112-62.976-26.112-26.112-62.976 26.112-62.976 62.976-26.112 62.976 26.112 26.112 62.976z" horiz-adv-x="443" />
<glyph unicode="&#x74;" d="M235.52 453.888q88.576 0 151.552-62.976t62.976-151.552q0-89.088-62.976-152.064t-151.552-62.976q-89.088 0-152.064 62.976t-62.976 152.064q0 88.576 62.976 151.552t152.064 62.976zM235.52 78.080q66.56 0 113.664 47.36t47.104 113.92-47.104 113.664-113.664 47.104-113.92-47.104-47.36-113.664 47.36-113.92 113.92-47.36zM339.456 191.232q7.168-5.12 2.56-12.288l-12.288-19.968q-2.56-3.072-5.632-4.096h-2.048q-2.56 0-5.12 1.536l-98.816 66.048q-0.512 0.512-1.28 1.024t-1.28 0.512q-2.56 3.584-2.56 6.656v116.736q0 3.584 2.56 6.144 3.584 2.56 6.656 2.56h23.552q3.584 0 6.144-2.56t2.56-6.144v-98.816z" horiz-adv-x="471" />
<glyph unicode="&#x75;" d="M182.32 422.816c0-120.8 82.864-218.72 185.072-218.72 25.408 0 49.616 6.080 71.664 17.008-27.12-71.36-95.936-122.176-176.816-122.176-104.528 0-189.28 84.752-189.28 189.28 0 77.12 46.208 143.344 112.368 172.848-1.856-12.448-3.008-25.168-3.008-38.24z" />
<glyph unicode="&#x76;" d="M443.392 381.184q5.12 0 8.96-3.584t3.84-8.704v-241.664q0-5.632-3.84-9.216t-8.96-3.584h-402.432q-5.12 0-8.96 3.584t-3.84 9.216v241.664q0 5.12 3.84 8.704t8.96 3.584h88.576q0 0.512 0.512 0.512l11.776 24.576q2.048 4.608 7.68 7.936t10.752 3.328h163.328q12.8 0 18.432-11.264l12.288-24.576v-0.512h89.088zM241.664 157.44q38.4 0 65.536 26.88t27.136 65.28-27.136 65.536-65.536 27.136q-37.888 0-65.024-27.136t-27.136-65.536 27.136-65.28 65.024-26.88z" horiz-adv-x="484" />
<glyph unicode="&#x77;" d="M453.12 299.264q8.192-70.144-48.384-126.464t-144.64-66.048q-31.744-3.584-61.44 0-47.104-48.64-100.864-54.272-24.064-2.56-28.672 4.096-1.536 2.048 1.536 4.096 45.056 33.792 40.96 74.24-35.328 19.968-57.344 50.176t-26.112 66.56q-8.192 69.632 48.128 126.208t144.384 66.816q88.064 9.728 155.904-32.768t76.544-112.64z" horiz-adv-x="475" />
<glyph unicode="&#x78;" d="M269.312 147.2q1.024 5.12 1.024 8.192l50.176 50.176 71.168-71.168 48.128-35.328 5.12-19.456-53.248-53.248-18.944 5.12-35.84 48.128zM386.56 107.264q-9.216 0-15.616-6.4t-6.4-16.128q0-9.216 6.4-15.616t15.616-6.4q9.728 0 16.128 6.4t6.4 15.616q0 9.728-6.4 16.128t-16.128 6.4zM240.128 285.952l-50.176-50.176q-3.072 0-8.192-1.024l-36.352 35.84q-16.384-7.68-28.672-7.68-37.888 0-68.352 30.72t-30.976 68.608q0 0.512 8.704 9.216 32.256-32.256 36.352-34.816t23.040-2.56q14.848 0 33.536 18.432t18.688 33.792q0 18.432-3.072 23.296t-34.304 35.584q7.68 9.216 9.216 9.216 37.888 0.512 68.608-30.464t30.72-68.864q0-13.824-8.192-29.184zM402.432 199.424q0 1.536 0.256 3.84t0.256 9.472-0.768 14.336-2.816 16.384-5.376 17.152-9.728 15.616-14.592 12.288h-1.536q-5.12 0-17.408-11.264l-111.616-111.104q4.096-14.848-4.096-24.064-1.024-0.512-3.584-3.072l-102.912-102.912q-2.56-2.56-3.072-3.584-5.632-5.632-14.848-5.632-20.992 0-39.424 24.576t-4.096 39.424q1.536 1.024 3.072 3.072l103.424 103.424q2.56 1.536 3.072 3.072 5.632 5.632 14.336 5.632 4.608 0 9.728-1.536l99.328 99.328 2.048 3.072q2.048 3.072 2.816 4.096t2.56 4.352 2.304 5.632 0.768 5.632-0.512 6.912-2.304 7.168q-8.192 14.848-30.72 19.456h-0.512q-8.192 0-28.16 18.944l-3.072 3.072q-9.728 9.728-10.24 12.8t9.216 13.824l36.864 37.376q8.704 8.704 13.312 8.704 3.072 0 13.312-10.24l3.072-3.072q16.896-16.896 18.944-25.088 2.048-10.24 12.288-23.552 1.536-2.048 9.216-2.048t9.728-2.048l60.928-60.928q37.376-37.376 15.36-129.024l-7.68-25.6z" horiz-adv-x="486" />
<glyph unicode="&#x79;" d="M431.616 279.808q4.608-0.512 7.936-4.608t3.328-8.704v-49.664q0-4.608-3.328-8.704t-7.936-4.608l-63.488-11.776q-4.608-1.024-6.144-4.096t1.024-7.168l36.864-54.272q6.144-9.728-2.048-17.92l-34.816-34.816q-8.192-8.192-17.408-1.536l-54.272 36.352q-3.584 2.56-7.424 1.28t-4.352-5.888l-11.776-64q-0.512-4.608-4.608-7.936t-8.704-3.328h-49.664q-4.608 0-8.704 3.328t-4.608 7.936l-11.776 64q-0.512 4.608-4.352 5.888t-7.424-1.28l-53.76-36.352q-10.24-6.144-17.92 1.536l-34.816 34.816q-8.192 8.192-2.048 17.92l36.864 54.272q2.56 4.096 1.024 7.168t-6.144 4.096l-63.488 11.776q-4.608 0.512-7.936 4.608t-3.328 8.704v49.664q0 4.608 3.328 8.704t7.936 4.608l63.488 11.776q11.264 3.072 5.12 11.776l-36.864 54.272q-5.632 9.728 2.048 17.408l34.816 34.816q8.192 8.192 17.92 2.048l53.76-36.864q3.584-2.56 7.424-1.024t4.352 6.144l11.776 63.488q0.512 4.608 4.608 7.936t8.704 3.328h49.664q4.608 0 8.704-3.328t4.608-7.936l11.776-63.488q0.512-4.608 4.352-6.144t7.424 1.024l54.272 36.864q9.216 6.144 17.408-2.048l34.816-34.816q7.68-7.68 2.048-17.408l-36.864-54.272q-6.144-8.704 5.12-11.776zM229.376 164.608q32.256 0 54.784 22.528t22.528 54.272-22.528 54.528-54.784 22.784q-31.744 0-54.272-22.784t-22.528-54.528 22.528-54.272 54.272-22.528z" horiz-adv-x="460" />
<glyph unicode="&#x7a;" d="M221.696 79.104q17.408 0 28.16 11.776l90.112 90.112 19.968-19.968q7.68-7.68 0-15.872l-130.048-130.048q-7.68-8.192-15.872 0l-179.2 179.2q-7.68 7.68-8.704 18.432l-4.096 49.664 171.52-171.52q11.776-11.776 28.16-11.776zM180.736 435.968l179.2-178.688q8.192-8.192 0-15.872l-130.048-130.56q-3.584-3.072-8.192-3.072t-7.68 3.072l-179.2 179.2q-7.68 8.704-8.704 18.944l-8.704 97.28q-1.024 11.264 7.168 18.432l22.016 22.528q7.68 6.656 17.408 6.656h1.536l96.768-8.704q11.264-1.024 18.432-9.216zM58.88 411.904q-7.168-6.656-7.168-16.896t7.168-16.896q6.656-6.656 16.896-6.656t16.896 6.656 6.656 16.896-6.656 16.896q-7.168 7.168-16.896 7.168t-16.896-7.168z" horiz-adv-x="377" />
<glyph unicode="&#x7b;" d="M384.512 249.088h-142.336v-208.896h-94.72v208.896h-141.824l189.44 219.136z" horiz-adv-x="390" />
<glyph unicode="&#x7c;" d="M93.184 239.36q-1.536-8.192-1.536-17.92v-35.328q-29.696 0-50.432 20.736t-20.736 50.432v124.928q0 29.696 20.736 50.432t50.432 20.736h178.176q29.696 0 50.432-20.736t20.736-50.432v-53.76h-53.248v53.76q0 7.168-5.376 12.544t-12.544 5.376h-178.176q-7.168 0-12.544-5.376t-5.376-12.544v-124.928q0-7.168 5.376-12.544t12.544-5.376h1.536zM376.832 293.12q29.184 0 50.176-20.992t20.992-50.688v-124.416q0-29.696-20.992-50.688t-50.176-20.992h-178.176q-29.696 0-50.432 20.992t-20.736 50.688v124.416q0 29.696 20.736 50.688t50.432 20.992h178.176zM394.24 97.024v124.416q0 7.68-5.12 12.8t-12.288 5.12h-178.176q-7.168 0-12.544-5.12t-5.376-12.8v-124.416q0-7.68 5.376-12.8t12.544-5.12h178.176q7.168 0 12.288 5.12t5.12 12.8z" horiz-adv-x="469" />
<glyph unicode="&#x7d;" d="M5.632 250.112h141.824v209.408h94.72v-209.408h142.336l-189.44-218.624z" horiz-adv-x="390" />
<glyph unicode="&#x7e;" d="M235.52 453.888q89.088 0 152.064-62.976t62.976-152.064-62.976-152.064-152.064-62.976-152.064 62.976-62.976 152.064 62.976 152.064 152.064 62.976zM321.536 113.408v118.784h-84.992l74.24 85.504h-57.344v69.12h-38.4v-69.12h-57.344l73.728-85.504h-82.944v-118.784h74.24l-19.968-19.968h64.512l-19.968 19.968h74.24zM170.496 134.912v75.776h129.536v-75.776h-129.536z" />
</font>
</defs>
</svg>
